<svg width="128" height="128" viewBox="0 0 128 128" fill="none" xmlns="http://www.w3.org/2000/svg">
<g clip-path="url(#clip0_703_97)">
<rect width="128" height="128" fill="black"/>
<path d="M7.25 0H135.25V128H7.25V0Z" fill="black"/>
<path d="M68.8498 30.5H69.9998L70.0998 30.7L70.1998 31.75V32.7L70.1498 32.8H69.7998L68.9498 32.65H68.1998L67.7498 32.75V32.85L67.6498 32.95V33.05L68.0998 33.15L68.1998 33.3L68.2498 33.6L68.4498 33.7H69.5998L69.8998 33.75L70.1998 34.95L70.5498 36L70.5998 36.25V36.6H69.8998L69.1498 36.4L68.4998 36.15L68.3998 36.05L68.4498 35.7L68.9998 34.8L69.2998 34.3V34.2L69.1998 34.3L69.0998 34.35V34.45H68.9998L68.9498 34.6H68.8498L68.7498 34.85L68.4998 35.15L68.1498 35.85L68.0998 36.25L67.8498 36.35L67.5998 36.75L67.4498 37V37.3L67.7498 37.2L68.1998 36.9H68.6498L69.3498 37.3L69.5998 37.55V37.85L69.3998 37.9L69.2498 37.75L69.0998 37.65L68.6998 37.6L68.3498 37.75L67.8498 38.2L67.6498 38.5L67.4998 38.6L67.4498 38.8L67.2498 39H67.1498V39.15H67.0498L67.1998 39.4H67.0498L66.8498 39.35L66.6498 39.55H66.5498L66.4998 39.8L66.6998 39.75L66.7498 40H66.6498L66.6998 40.45L66.1998 40.4L66.1498 40.5L66.0498 40.55L66.3498 40.5L66.5998 40.55L66.4998 40.6L66.4498 40.8L66.2998 40.9L66.2498 41.15L66.4498 41.05L66.7498 40.65L66.8498 40.45L66.8998 40.35L67.0498 40.2L67.0998 39.85L67.0498 40L66.8498 39.95L66.8998 39.7H67.3998L67.4498 39.5H67.5498L67.5998 39.3L67.8498 39.25L67.9998 39.1L68.4998 39.05H68.6998V38.95L69.3498 38.65H70.0498L70.0998 38.9L69.9498 39.45H69.8498V39.55H69.3998L69.2498 39.5L69.1498 39.7L69.0498 39.75L69.0998 40L69.1998 40.05L69.2498 39.9L69.3498 39.95V40.2L69.2498 40.45H69.0998V40.85L69.2498 40.9L69.4998 40.3L69.6998 40.15L69.8998 40.25L70.2498 40.75L70.6998 41.55L70.8998 41.9L71.1998 42.35L71.5498 42.7H71.7998L71.8998 42.6L71.5498 42.2L70.9998 41.3L70.4498 40.15L70.2498 39.7V39L70.1998 38.75H70.2998L70.3998 38.55H70.6998L70.9498 39L71.3498 39.65L71.5998 39.95L71.7498 40.3L72.1498 40.85L72.3998 41.1L72.6998 41.35L72.9998 41.5L73.1498 41.65H73.2498V41.8L73.4998 41.9L73.7998 42.1L73.9998 42.35L73.8998 42.55L73.4498 42.75L73.6998 42.8L73.9498 42.75L74.1498 42.85L74.1998 43.1L74.2998 43.15V43.6L74.0498 43.65L74.2498 43.75L74.3998 43.95V44.05L73.8498 43.95L73.5498 43.75L73.5998 43.95L73.8498 44.15L74.2998 44.35V44.6L74.2498 44.65L73.8998 44.6L73.6498 44.4L73.5498 44.35L73.6498 44.7L73.8498 44.8L74.2998 45V45.15L73.9998 45.3H73.8998V45.4L74.3998 45.45L74.6498 45.55L74.7998 45.85V46.15L74.6498 46.2V46.35L74.3498 46.4V46.3L74.1498 46.35V46.45H74.2498V46.55L74.5498 46.45L74.7998 46.55L74.6498 47.05L74.5498 47.15H74.3498L74.2998 47.3L74.5498 47.35L74.7498 47.8L74.8998 48.25L74.9498 48.8L74.8498 48.85L74.9498 48.95L75.0498 49.65L75.2998 49.9V50H75.3998L75.2998 49.65V49.3L75.4498 49.2L75.7498 49.25L76.1998 49.55L76.3498 49.85V50.45L76.2498 50.6H75.9498L75.6998 50.4V50.25H75.5498L75.1998 50.4L75.3498 50.85V51.1L75.4998 51.3L75.7998 51.45V51.65L75.8998 51.7L75.8498 51.9L75.9498 52.25L76.0998 52.7V52.9H76.2498L76.2998 53.2L76.1498 53.15L76.3498 53.4L76.2998 53.6V53.75L76.4998 53.85L76.5498 54.1V54.25L76.8998 54.3L76.8498 54.45H76.3998V54.55H76.5998V54.65L76.6998 54.7L76.6498 54.75L76.7998 54.8V54.9L76.8998 54.95H76.6998L76.8998 55.05V55.2L77.1498 55.25L77.0498 55.35L76.8498 55.3V55.2H76.5998L76.5498 55.25L76.6998 55.35L76.5498 55.4L76.7498 55.45V55.55L76.5498 55.65L76.6998 55.8L76.6498 55.85L76.9998 55.9L76.9498 56.05L76.6498 56L76.5498 56.25L76.8498 56.15L77.0998 56.2L76.9998 56.25V56.35L76.6498 56.45V56.65L76.7498 56.9L76.6998 57.15L76.9498 57.2L76.8998 57.45H76.6998V57.6L76.4998 57.65L76.5498 57.75L76.7998 57.55L76.9498 57.65L76.8998 57.85L76.9498 58V58.15L76.9998 58.4L76.9498 58.55L76.6498 58.6V58.5L76.4998 58.55L76.2998 58.25L76.1498 58.35L75.6998 58.2L75.3498 58.1L75.1498 58.05L74.8498 57.95L74.4998 57.85L74.2498 57.75L74.2998 57.85L75.2998 58.2L76.1998 58.6L76.6498 58.9L76.9498 59.1L77.2998 59.6L77.6498 60.35L77.7998 61.05L77.8998 62.3V62.8L77.7498 62.95L77.4498 63.05L77.3498 62.7L77.0998 61.4L76.8998 60.7L76.6998 60.2L76.3498 59.65L76.2998 59.5L76.1498 59.45V59.35L75.8998 59.25L75.4498 59L75.0998 58.8H74.9498L75.3998 59.05L75.5998 59.15V59.25L75.7998 59.35L76.1998 59.8L76.3998 60.05L76.4998 60.1L76.5998 60.55L76.8498 61.25L76.9998 62.15V62.65L76.9498 62.85L76.7998 62.95H76.5998L76.6498 63.25L76.7998 63.3L76.5998 64.2L76.4498 64.45H76.2498L76.0498 64.15L75.7498 63.4L75.5498 62.9L75.3998 62.45L75.4498 62.95L75.5498 63.45L75.7498 64.2L75.7998 64.45L76.3998 64.6L77.1998 64.8L77.4498 65.05L77.4998 65.25V65.65L77.4498 65.75H76.8498L76.1498 65.55L75.4998 65.2L75.3498 65.1L75.2998 64.75L75.5498 64.5V64.2L75.2998 64.05L74.9998 63.45L74.5998 62.25L74.3998 62V61.9L74.1998 61.85L74.5498 62.55L74.6498 62.85L74.8498 63.65L74.9998 64.25L74.9498 64.3H74.5998L74.4498 64.05L74.0498 62.85L73.6998 62.1L73.5498 61.8V61.7H73.3998L73.4998 61.95L73.9998 63.25L74.1998 63.95V64.35L73.9998 64.45L73.7498 64.25L73.3498 63.45L72.8498 62.55L72.6998 62.3L72.4498 62.45L72.1998 62.65L71.7998 62.85L71.1998 63L70.3998 62.8L69.8498 62.55L69.3998 62.35L68.6998 61.95L68.1498 61.6L67.7498 61.45L66.3498 62.1L65.9498 62.25L65.5498 62.2L65.3498 61.85V61.5L65.4998 61.45H66.0498L66.8998 61.1V61L66.7498 60.95L65.6998 60.85L65.3998 60.75L65.2998 60.6V60.2L65.4498 59.7L65.7998 59.25L66.4998 58.9L66.9998 58.75L67.3998 58.7L68.4998 58.85L69.1998 58.8L70.5498 58.5L71.6998 58.1L72.1498 57.9H71.9498L71.3498 58L71.1998 57.9L71.1498 58.05H71.0498L70.7998 57.6V57.75V58L70.6498 58.1V58L70.4998 57.95L70.4498 57.75L70.2998 57.7L70.2498 57.45L70.1998 57.6L70.2498 57.75L70.1498 58.15H69.8998L69.6998 57.95L69.5998 57.85L69.6498 58.1L69.5498 58.25L69.3498 58.2L69.2998 58.1L69.1998 58.4L68.9498 58.35L68.7498 58.15L68.6998 57.95L68.5998 57.65L68.4498 57.55L68.4998 57.9H68.5998L68.6498 58.1L68.5998 58.2L68.3998 58.25L68.2498 57.95V57.8H68.1498L68.0498 57.6L67.9498 57.55L67.8998 57.4L67.9498 57.6L68.1498 57.9L68.0998 58.05H68.1998L68.1498 58.4L67.8998 58.15L67.6998 58L67.4998 57.95L67.3498 57.7L67.2998 57.4H67.1498L67.2498 57.85V58.05H67.1498V57.95L67.0498 57.9L66.8498 57.8L66.7498 57.7L66.5998 57.2L66.4998 57.15L66.4498 57.5L66.5998 57.55L66.6498 57.8H66.4998L66.1998 57.65L66.1498 57.3L65.9998 57.6H65.6998L65.5998 57.65L65.6498 57.45H65.7498L65.7998 57.2L65.6498 57.15L65.5498 57.45L65.4498 57.5L65.1998 57.4V57.15L65.0498 57.25L64.9998 57.15L65.1498 56.55L64.9498 56.7L64.7998 57.1H64.6498L64.5498 56.85V56.55H64.4498V56.75L64.2498 56.7L64.1998 56.5L64.3498 56.45L64.1498 56.4L64.1998 56.15L64.0998 55.9L64.1498 55.75H64.0498V55.85H63.9498L63.8498 56.05L63.7998 56.1H63.5498L63.2998 56L63.2498 55.7L63.2998 55.6L63.6498 55.65L63.7498 55.15L63.8498 55.1L63.5998 55V55.3L63.3498 55.35H63.0498L62.9998 55.2L63.2498 54.7L63.3998 54.55L63.3498 54.1H63.2998L63.1998 54.35L62.9498 54.4L62.5498 54.1V53.95L62.3998 53.9L62.3498 53.6L62.4998 53.35L62.5998 53.2L62.3998 52.9V52.75L62.5998 52.8L62.4998 52.65L62.5498 52.2L62.3998 52.05V51.95H61.9998L61.8498 51.8L61.7498 51.85V51.75L61.5998 51.8L61.2498 51.45L61.0998 51.25V51L61.3498 51.05L61.4498 51.3H61.5498V51.4H61.6498V51.2L61.7998 51.25L61.8998 51.4L61.8498 51.5L61.9498 51.45V51.3H62.0498V51.2L61.7998 51.15L61.7498 50.95L61.5998 50.85V50.7H61.6998V50.6L62.0498 50.65L62.2998 50.8V50.7H62.1498L62.0998 50.45L61.9498 50.4L61.6498 50.5L61.3498 50.7L61.1498 50.65V50.45L61.2998 50.25L61.6998 49.95L61.9498 49.9L61.8998 49.7L61.8498 49.55L61.6498 49.45H61.3998L61.2998 49.25L61.3498 49.1L61.6498 49.05L61.6998 48.95L61.7998 49L61.8498 48.9L61.5498 48.8H61.4498L61.3498 49L61.1998 49.15H60.9998L60.9498 48.95L61.2998 48.7L61.2498 48.5L61.0498 48.4L60.9998 48.15L61.2498 48.05L61.3998 47.9L61.6998 47.85L61.7998 47.45H61.5998L61.5498 47.25L61.6998 47.05L61.7498 46.9L61.5498 46.95L60.9498 47L60.8998 46.35L61.1998 46.15L61.2998 46.2L61.3998 46.6V46.5L61.3498 46.3L61.6998 46.1H61.8498L61.8998 46.35L61.7998 46.4H61.8998L62.0498 46.15L62.0998 46.05L61.9498 46.1L61.7998 46.05H61.2498L60.9998 46.1L60.9498 46L61.0998 45.75L61.1998 45.4L61.1498 45.3L60.4998 45.1L59.3998 44.5L58.8998 44.15L57.8498 43.45L56.7998 42.8L55.6998 42.15L54.4498 41.6L53.1498 41.2L52.4498 41.05L52.3498 40.95L51.8498 40.9L51.1998 41.05L50.5998 41.35L49.6998 41.95L49.0498 42.4L48.4498 42.85L47.7998 43.45L47.5998 43.7L47.1998 44.2L46.6498 45.15L46.4498 45.5V45.65L46.8998 45.2L46.9498 45.1H47.0498L47.1498 44.9H47.2498L47.3498 44.7L47.9498 44.1L48.6498 43.55L49.1998 43.2L50.1498 42.75L51.0998 42.45L51.7498 42.3L52.0998 42.25H52.9498L53.6998 42.45L54.6998 42.9L55.5498 43.4L56.0498 43.75L56.7498 44.3L57.1498 44.65L57.3998 44.95L57.6498 45.2L57.9998 45.55L58.4998 46.25L58.7998 46.75L59.1998 47.55L59.7498 48.95V49.2L59.5998 49.05L59.4498 48.7L59.0998 48.2L58.7498 47.75L58.1998 47.15L57.7498 46.7L57.1998 46.3L57.0498 46.15L56.5498 45.8L55.6498 45.2L55.1998 44.95L54.2498 44.45L53.2998 44.05L52.2998 43.75L51.9998 43.7H50.7498L49.7498 43.9L49.0498 44.15L48.3498 44.55L48.1498 44.7H48.0498V44.8H47.9498L47.9998 44.9L48.8998 44.6L50.0498 44.35L50.8998 44.25H51.6498L52.5498 44.4L53.2998 44.65L54.2998 45.1L54.7998 45.4L55.3498 45.7L56.0498 46.2L56.5998 46.65L57.2498 47.3L57.7998 48.05L58.2498 48.85L58.5998 49.65L58.8998 50.55L59.0998 51.4L59.1498 51.75V53.15L59.0998 53.85L59.5998 54.2L60.2998 54.65L60.9998 55.2L61.3998 55.65L61.4998 55.85V56.15L61.2998 56.1L60.7498 55.65L60.5998 55.5H60.3998V55.3L59.8998 54.85L59.0998 54.3L58.7998 54.15L58.6998 54.05V53.45L58.7498 53V52.3L58.5998 51.35L58.2998 50.4L57.8498 49.35L57.4498 48.65L57.0998 48.15L56.6498 47.65L56.0998 47.1L55.6498 46.75L55.1498 46.4L54.1998 45.85L53.7998 45.65L53.0998 45.35L52.4498 45.15L51.6498 45H50.7998L49.6498 45.15L48.6998 45.35L48.0498 45.55L47.3998 45.9L46.9498 46.25L46.4998 46.6L46.0498 47.05L45.5498 47.7L45.4498 48H45.3498L45.1998 48.45L45.0998 48.8L45.0498 49.45L45.2998 49.4L45.4998 49.2H45.5998V49.55L45.4498 50.25L45.2498 50.75L44.8498 51.8L44.2498 53.6L43.8498 55L43.4498 56.65L43.1998 57.75L42.9998 58.95L42.7498 61.25L42.6998 62.05L42.6498 64.05L42.6998 64.7L42.7998 64.65L43.0998 61.65L43.3998 59.35L43.6998 57.5L44.1998 55.4L44.6498 53.75L45.1498 52.15L45.8998 50.05L46.3998 48.7L46.7998 48.05L46.9998 47.8H47.0998V48.2L46.5998 49.65L46.3498 50.35L46.0498 51.15L45.7998 52L45.4498 53.05L44.7498 55.65L44.3498 57.55L44.0998 58.9L43.8498 60.4L43.5998 62.2L43.2998 64.9L42.9998 68L42.8498 70.7L42.6498 73.6L42.3998 76.7L42.2498 78.8L41.9998 81.15L41.8498 82.8L41.5998 84.7L41.3998 86.45L40.9998 88.85L40.7998 89.8L40.6998 90.1L40.3998 91.35L40.1998 92.1L39.7998 93.6L39.2998 95.2L38.6998 96.95L38.3498 97.9L37.9998 98.9L37.7998 99.4L37.3498 100.55L36.9498 101.35L36.6498 102H36.5498L36.4498 102.3L35.8998 103.25L35.8498 103.4H35.7498L35.6498 103.65L35.3998 104.05L34.9998 104.65L34.6498 105.2H34.5498L34.4498 105.45L34.1498 105.85L33.7998 106.25L33.1498 107L32.6498 107.6L32.3498 107.85L32.0998 108.1L31.8498 108.4L31.5498 108.65H31.4498V108.75L30.9498 109.1L30.4498 109.35L29.5998 109.6L27.9498 109.8L26.1498 109.95L24.7498 110.15L23.9998 110.35L23.3498 110.5V110.6L24.8498 110.45H27.2498L27.4498 110.5V110.65L26.6998 111L25.8998 111.3L24.3498 111.75L23.8498 111.95L23.6998 112H24.3498L26.5498 111.85L27.3498 111.75L29.0498 111.4L30.3498 111L31.5498 110.5L32.7998 109.9L34.0998 109.2L34.9498 108.7L35.4998 108.35L36.3498 107.75L36.9998 107.2L37.3998 106.85H37.4998L37.5498 106.7L37.6998 106.65L37.5998 106.9L37.1498 107.5L36.6998 107.95L36.5998 108.1H36.4998V108.2L36.0998 108.55L35.4498 109.1L34.5498 109.75L33.6998 110.3L33.0498 110.7L32.2498 111.15L31.4498 111.55L30.4998 111.95L30.1498 112.1L29.6498 112.25L28.8498 112.5L27.6998 112.8L26.4998 113L24.4498 113.25L23.5498 113.45L22.8998 113.7L22.5998 113.9L22.4998 114.15V114.45H22.5498L22.6498 114.9L22.9498 115.35L23.1998 115.55V115.65L23.4498 115.75L24.1498 116.15L25.0998 116.55L26.6498 116.95L28.2498 117.25L29.9498 117.5L31.2498 117.65L33.7498 117.8L36.0498 117.85H38.2998L40.3998 117.8L42.0498 117.65L43.3998 117.4L44.3998 117.1L45.6998 116.6L46.5998 116.1L47.1498 115.7L47.9498 115.05L48.6498 114.35L49.1998 113.65L49.6998 112.95L50.0998 112.3L50.4998 111.6L50.8998 110.85L51.5498 109.35L52.1498 107.75L52.7498 105.9L53.0998 104.7L53.5998 102.75L54.1998 100.05L54.5498 98.25L55.1498 94.6L55.5998 91.75L55.9498 89.2L56.3998 85.2L56.7498 81.9L57.0498 78.75L57.3998 74.5L57.5498 73.25L57.6498 73.2L57.6998 73.3V75.35L57.6498 76.8L57.4498 80.45L57.1498 84.2L56.6498 88.85L56.3498 91.35L55.9998 93.8L55.4998 96.85L54.8498 100.2L54.3498 102.5L53.8498 104.45L53.3998 106L53.0498 107.1L52.4998 108.7L52.0998 109.7L51.4498 111.15L50.8998 112.25L50.6998 112.6L50.2498 113.3V113.4L50.0998 113.55L49.5998 114.25L49.4498 114.5H49.3498L49.2498 114.7L49.0498 115H48.9498L48.8498 115.2L47.9998 116.05L47.2998 116.6L47.0498 116.7V116.8L46.7498 116.95H46.6498V117.05L45.8498 117.45L44.9498 117.85L44.3998 118.05L44.1998 118.1L44.2998 118.15L44.8498 118.2L47.4998 118.3L48.9498 118.45L50.1998 118.65L52.5998 119.2L53.6998 119.4L54.9498 119.55H56.3498L57.6498 119.4L58.6998 119.15L59.5998 118.85L60.0498 118.7L60.9498 118.5L61.4498 118.25H61.5498V117.95L61.2498 117.5L60.6998 117.15L60.2498 117L58.6498 116.85L58.5498 116.75L58.7498 116.55L59.7498 116.3L60.3498 116.15L60.8498 115.85L61.1498 115.6H61.2498V115.5L61.8998 115.1L62.4498 114.9L62.9498 114.8H63.5998L64.0998 114.95L64.6498 115.35L64.9498 115.7L65.0998 116.2V116.5L64.9998 116.6L64.7498 116.45V116.35L64.5498 116.25L64.0498 115.9L63.6498 115.7L63.2498 115.6H62.6998L61.9998 115.85L61.4498 116.2L61.3998 116.3L61.6498 116.4L62.1498 116.65L62.8998 117.35L63.1998 117.75L63.2998 117.9L63.3998 118.3L63.8498 118.15L64.3998 117.8L64.5498 117.65H64.6498L64.7498 117.45L65.0498 117.05L65.0998 116.9L65.1498 115.9L65.0998 98.8L65.1498 78.95L65.1998 73.85L65.2498 70.15L65.2998 67.85L65.4498 66.3L65.5998 65.7L65.9498 65.1L66.4998 64.4L66.9998 63.9L67.3498 63.75H67.5498L67.5998 63.85L67.6498 69.05V86.55L67.5498 96.65L67.4998 100.85L67.3998 107.65L67.2998 113.75L67.2498 115.2L67.0998 116L66.7998 116.4L66.3998 116.75L65.5998 117.3L64.8498 117.9L64.3498 118.25L63.8998 118.45L63.2498 118.55V118.75L63.4498 118.8L66.0998 118.9L68.8498 119.05V119.1L65.3998 119.6L65.0998 119.65L63.9998 119.6L63.7998 119.55H60.7498L59.4498 119.75L57.5998 120.2L56.3998 120.35H54.2498L52.8498 120.2L49.7998 119.7L47.8498 119.45L44.3998 119.1L41.2498 118.85L39.7998 118.75L38.1998 118.7L32.1998 118.6L28.5498 118.45L26.2998 118.3L22.8498 118.05L20.9498 117.9L18.6498 117.65L17.7998 117.5L16.7498 117.25L16.3498 117.05L16.2998 116.85L16.5498 116.65L17.3998 116.2L17.9498 115.8H18.0498L18.0998 115.65L18.4498 115.35L18.8498 114.8L19.1998 114.1L19.3498 113.55L19.3998 113.25V112.45L19.1998 111.45L18.9998 111L18.6998 110.5L18.2498 110L17.6998 109.55L17.1498 109.2H17.0498V109.1L16.7998 109L16.6498 108.85V108.7L17.1498 108.45L17.8998 108.25L19.4998 107.95L21.5998 107.65L23.2998 107.45L25.3498 107.3L26.6498 107.25L31.5498 107.2L31.8498 107.05L32.6498 106.25L32.9498 105.9L33.0998 105.8L33.1498 105.6L33.8998 104.85H33.9998L34.0498 104.6L34.6498 103.85L35.2498 103.05L35.9498 101.6L36.2998 100.85L36.6998 99.85L37.1998 98.75L37.2998 98.5L37.4498 98.05L38.1498 96.2L38.5998 94.85L39.3498 92.05L39.9998 89.65L40.3998 87.95L40.6998 85.85L41.4498 79.95L41.6498 78.15L41.7498 76.4L41.7998 72.05L41.6998 68.95L41.4998 65.9L41.4498 64.65V63.35L41.5498 61.5L41.7498 59.6L42.0998 57.3L42.5498 54.9L42.7998 53.95L43.3998 52.1L43.6998 51.35L44.2498 49.7L44.6498 48.15L44.9998 47.15L45.1998 46.8L45.3998 46.3L46.0998 44.85L46.6498 43.85L47.2498 43.05L47.6998 42.55L48.3998 41.85L49.0498 41.35L49.5998 41L50.2998 40.65L50.9498 40.45L51.3498 40.4L52.5498 40.35L53.1498 40.2L53.6498 39.95L54.0498 39.7L54.6998 39.4L54.9498 39.25H55.0498V39.15H54.9498H53.7498L53.3498 39.25L52.3498 39.45H51.7998L51.2998 39.3L50.8998 39L50.7498 38.65V38.25L50.8998 37.95L51.3498 37.55L51.8998 37.4L52.9498 37.35L53.3998 37.5L53.5498 37.55L54.3498 37.15L54.7998 36.95L55.2498 36.85L55.6998 36.65L56.3498 36.15L56.5998 35.85H56.6998L56.7998 35.65L57.0498 35.4L57.3998 35.15H57.7998L57.8498 35.2L57.8998 35.55L57.9498 35.6L58.0498 35.45L58.0998 35.15L58.2998 35.1H58.7498L58.8498 35.4V36.1L58.7498 37L58.6998 37.25L58.4998 37.6L58.2498 37.85L57.7498 38.25L57.5998 38.3L57.4998 38.5L57.2498 38.8H57.1498V39L57.2498 39.05L57.2998 38.9L57.3998 38.85L57.4498 38.7L57.8498 38.45H57.9498V38.35L58.3998 38.15L58.5498 38.2L58.3498 38.45L58.0998 38.65L57.9998 38.85H57.8998L57.9498 39.05L58.4998 38.6L58.7998 38.2L58.9498 37.85L59.0498 37.5L59.2498 37.1L59.5498 36.1L59.5998 35.75L59.9998 35.3L60.1998 35.25L60.4998 35.05L60.6498 34.85H60.7498V34.75L60.9498 34.7L60.9998 34.75L61.0498 35.6L60.8998 36.95L60.5998 38.5L60.3998 39.1L60.0998 39.7L59.7498 40L59.5998 40.1H59.2998L59.6498 39.55L60.0498 38.75V38.55L59.6998 39.1L59.4498 39.4H59.3498L59.2498 39.6H59.1498L59.0498 39.8L58.4998 40.25L58.0498 40.55L57.3998 40.85L56.9998 40.95H56.6498L56.3498 40.85L56.1998 40.65L56.3498 40.2L56.3998 39.85L55.9498 39.95L54.8998 40.25L53.4498 40.45L52.6498 40.6V40.7L53.4498 40.75L54.6998 41L55.5498 41.25L56.3498 41.6L57.1998 42.1L57.7998 42.5L58.2498 42.8L58.9498 43.3L59.5998 43.8L60.3498 44.35L60.9498 44.65L61.3498 44.7L61.5498 44.55L61.6998 44.25L61.8498 44.1L61.7998 43.8L61.9498 43.6H61.8498L61.6998 43.2L61.6498 43H61.3998L61.3498 42.85H61.2498L61.0498 42.5L61.0998 42.05L61.2498 41.65V41.55L61.5498 41.45H61.6498L61.6998 41.35H61.7998L61.8498 41.25L62.0998 41.35V41.45V41.3L61.9998 41L61.8498 40.75L61.9498 40.35L62.4498 40.1L63.2998 39.8L64.0998 39.4L64.6498 39.05L64.8998 38.8L64.9998 38.65L64.6998 38.75V38.85L64.3498 38.9L64.2498 38.95L64.1498 38.5L63.9998 37.9L63.6998 37.25L63.7498 36.85L63.9498 36.45L64.8998 35.85L65.0498 35.7L64.9498 35.45L64.7998 35.2L64.4998 34.2L64.3998 33.95L64.3498 33.55V33.2L64.4998 32.85L64.9998 32.5L65.5998 32.15L65.7498 32.2L65.8498 32.65L65.9498 32.35L65.9998 32L66.1998 31.85L66.4498 31.8L66.5498 31.55L67.0498 31.25H67.1498V31.15L67.9998 30.7L68.4998 30.55L68.8498 30.5Z" fill="#FEFEFE"/>
<path d="M97.8999 36.45H98.8999L99.8499 36.55L99.9999 36.7L99.4999 37.75L99.1999 38.85L98.9999 39.95L98.8499 41.55L98.7499 43.8L98.6999 51L98.6499 55.35L98.5999 64L98.5499 66.8L98.4999 71L98.4499 73.45L98.3499 75L98.2999 76.4L98.2499 79.6L98.1999 96.4L98.1499 103.05L98.0499 104.95L97.8999 106.2L97.5999 107.45L97.2999 108.2L96.9999 108.75L96.5999 109.3L96.3499 109.6L96.2999 109.75L96.5999 109.8L96.6499 109.85V110.2L96.4499 110.45L96.1499 110.5L95.9999 110.1V109.85H95.7499L95.6499 109.65V79.7L95.6999 73.4L95.7499 70.55L95.8999 68.1L95.9999 66.8L96.0499 65.5L96.0999 62.4L96.1499 41.05L96.2499 39.3L96.4499 38.05L96.6499 37.4L97.0999 36.7L97.2499 36.55L97.8999 36.45Z" fill="#FEFEFE"/>
<path d="M91.7499 32.45L91.9999 32.5L92.2499 32.7L92.3999 33.05L92.4499 33.5L92.4999 35.05L92.5499 39.6L92.5999 54.3L92.6499 67.4V70.7L92.6999 73.7L92.8499 76.8L92.8999 80.1L92.9499 85.05V111.55L92.7499 111.95L92.1499 112.55L91.8999 112.75L91.8499 112.9L92.2999 112.95L92.3999 113V113.3L92.1999 113.55L91.8499 113.7H91.5999L91.3499 113.3L91.1499 112.95L90.9499 112.85L90.8999 112.7V83.45L91.0499 82.35L91.5999 79.6L91.7499 78.55L91.7999 78L91.8499 75.4L91.7999 61.55L91.7499 50.6L91.6499 37V33.85L91.6999 32.5L91.7499 32.45Z" fill="#FEFEFE"/>
<path d="M94.2 34.6L94.45 34.7L94.65 35.1L94.75 35.6L94.85 37.55L94.9 41.2L94.95 49.2L95 61.7L95.05 67.3L95.15 70.95L95.2 73.85V109.95L95 110.4L94.7 110.9L94.5 111.1L94.15 111.35L94.1 111.45L94.4 111.55L94.45 111.7L94.3 112.15L94.1 112.3H93.8L93.65 112.1L93.5 111.65L93.35 111.5L93.3 111.3L93.25 87.45V76.25L93.45 74.7L93.95 72.3L94.15 70.8L94.2 70.1V65.2L94.1 47.2L94.05 41.65V35.05L94.15 34.65L94.2 34.6Z" fill="#FEFEFE"/>
<path d="M89.3998 30.65L89.6998 30.7L89.9498 30.9L90.0498 31.55L90.0998 32.6L90.1498 34.8L90.1998 45.55L90.2998 63.2V77.6L90.3498 80.95L90.3998 82.65L90.4498 83.6L90.5498 87.6V112.8L90.3998 113.15L89.9498 113.65L89.6498 113.85L90.0498 114.05L90.0998 114.3L89.8498 114.55L89.6498 114.6H89.1998L89.0498 114.35L89.0998 114.05L89.1498 113.95L88.6998 113.9L88.5998 113.65L88.5498 109V104L88.5998 90.45L88.6498 89.2L88.8998 87.9L89.2498 86.2L89.4498 84.9L89.4998 84.35V72.95L89.4498 60.8L89.2998 35.75V31.85L89.3498 30.7L89.3998 30.65Z" fill="#FEFEFE"/>
<path d="M87.0498 29L87.4498 29.1L87.5998 29.3L87.6998 30.15L87.7498 31.75L87.7998 42.35L87.8498 49.5L87.9498 70L87.9998 84L88.0498 86.3L88.1498 88.45L88.2498 90.7V113.7L88.1498 114L87.6998 114.4L87.3498 114.65L87.4998 114.75L87.7998 114.9L87.6998 115.1L87.3498 115.25L86.8998 115.3L86.6998 115.15L86.6498 114.75L86.3998 114.65L86.2998 114.4V102.4L86.3498 95.5L86.4498 94L86.6498 92.6L87.0498 90.45L87.1498 89.65L87.1998 88.4V85L87.1498 67.2L87.0498 50.8L86.9998 45.05L86.9498 34.1V29.1L87.0498 29Z" fill="#FEFEFE"/>
<path d="M84.8001 27.65H85.1001L85.3001 27.85L85.4001 28.1L85.4501 28.55L85.5001 29.75L85.5501 33.2L85.6501 49.65L85.7001 90L85.7501 92.05L85.8501 93.7L85.9501 95L86.0001 96.25V113.25L85.9501 114.35L85.7501 114.65L85.1501 115.1L85.3001 115.3V115.6L85.1501 115.7L84.9001 115.75H84.3501L84.2501 115.55L84.3001 115.25L84.3501 115.15L83.9501 115.1L83.8501 114.9V109.05L83.9001 101.8L83.9501 100.1L84.0501 98.65L84.4501 96.7L84.8001 95.05L84.9001 94.25V66.75L84.8501 54.95L84.7501 35.6L84.7001 30.35V28.6L84.7501 27.7L84.8001 27.65Z" fill="#FEFEFE"/>
<path d="M82.1999 26.55L82.4999 26.65L82.6999 26.9L82.9499 27.5L83.0999 28.45L83.1999 29.75L83.2499 31.1L83.2999 35.4L83.3499 52L83.3999 96.1L83.5499 98.25L83.5999 99.35V107.75L83.5499 113.65L83.4999 114.65L83.3999 115L83.1999 115.25L82.9499 115.45H82.8499V115.55L82.6999 115.6L82.7999 115.7L82.7499 115.95L82.6499 116.05H81.7999L81.6999 115.9V115.7L82.1499 115.6L81.5999 115.55L81.4499 115.4L81.3999 115.25V114L81.4499 112.4L81.4999 103.85L81.5999 101.95L81.7999 100.75L82.1999 98.95L82.4999 97.15L82.5499 96.55L82.5999 94V68L82.5499 48L82.4999 38.55L82.4499 33.4L82.3999 31.2L82.2999 29.1L82.1499 27.2V26.6L82.1999 26.55Z" fill="#FEFEFE"/>
<path d="M79.6502 26H80.0002L80.2502 26.2L80.4502 26.7L80.6502 27.7L80.8502 29.3L80.9502 30.65L81.0002 32.3V97.55L81.0502 99.9L81.1502 101.8L81.2002 103.35V112.2L81.1502 113.95L81.0502 114.8L80.8502 115.2L80.0502 116.05L79.7002 116.15L78.8502 116.1L78.5502 115.9L78.4502 115.55L78.7002 113.9L78.8002 112.85L78.8502 111.75L78.9002 107.6L79.0002 106.15L79.1002 105.5L79.4502 104L79.8002 102.6L80.0502 101.3L80.1502 100.4L80.2002 95.8L80.2502 68.4V54.4L80.2002 38.4L80.1502 31.6L80.0502 29.85L79.8502 28.05L79.6502 26.6V26Z" fill="#FEFEFE"/>
<path d="M72.5001 67.05H72.8501L72.9001 69L72.9501 77.2L73.0001 82.35L73.1501 90.8L73.2501 98.15L73.3001 103.6V108.3L73.2001 109.35L73.0001 109.8L72.4501 110.7L71.9001 111.5L71.6501 111.95H71.5501L71.5001 110.8L71.3001 102.5L71.2001 98.8L71.1501 96L71.1001 91.3V70.2L71.1501 68.85L71.2501 67.55L71.3001 67.3L71.6001 67.2L72.5001 67.05Z" fill="#FEFEFE"/>
<path d="M78.0999 63.1L78.2499 63.25L78.2999 63.4V71L78.2499 91V99.6L78.2999 102.8L78.4999 106.05L78.5499 106.95V112.3L78.4499 113.45L78.2499 114.4L77.9999 115L77.6499 115.55L77.1999 116L76.9499 116.1H75.7999L75.1499 116.05L74.9999 116L75.0499 115.7L75.5999 114.5L75.8499 113.75L76.0499 112.75L76.1999 111.4L76.2999 109.3V107.25L76.1999 107.3L76.2499 107.5L76.1499 107.85L75.9999 110.7L75.7999 112.2L75.5499 113.25L75.2499 114.05L74.8499 114.8L74.3499 115.5L73.9999 115.85L73.6999 116.05L73.5499 116.1L69.6999 116.15L69.6499 116L69.8999 115.75L70.7499 115.05L71.1999 114.65H71.2999V114.55L71.6999 114.2L72.2999 113.5L72.7999 112.8L73.3999 111.9L73.8999 111.05L74.4499 110L75.0499 108.7L75.9499 106.9L76.1499 106.5L76.3499 106.45L76.3999 106.1L76.8999 104.55L77.1499 103.4L77.3499 102L77.4999 100.05L77.5499 98V89.6L77.4999 82.15V76L77.5499 73.2L77.5999 65.9L77.8499 64.1L78.0999 63.1Z" fill="#FEFEFE"/>
<path d="M62.9501 4.80005H63.6501L64.6001 4.95005L65.5501 5.30005L66.3501 5.70005L67.1501 6.20005L67.8501 6.70005L68.3501 7.10005L69.0001 7.70005L69.7001 8.40005L70.2001 9.05005L70.5501 9.55005L71.1501 10.5L71.7501 11.5L72.4501 12.85L73.0001 14.15L73.5501 15.6L74.0001 17.05L74.3501 18.2L74.7501 19.2L75.1001 19.85L75.5501 20.35L76.0001 20.75L76.6501 21.15L77.6001 21.55L78.6001 21.8L80.5501 22.1L81.9501 22.4L83.7001 22.85L85.7501 23.5L87.1001 24L88.4001 24.55L89.8501 25.15L90.6501 25.55L92.0001 26.25L92.9501 26.8L93.8001 27.35L95.0001 28.15L95.7001 28.65L96.3501 29.15L96.9501 29.7L97.7001 30.4L98.9501 31.65V31.75H98.2001L97.0501 31.8L96.5001 31.85L96.4501 31.9H98.8001L99.1001 31.85L99.4501 32.1V32.2L99.6501 32.3L100.2 32.8L100.25 33.05H99.2501L97.2001 32.95L96.7501 32.85L96.5001 32.6L96.0001 31.95L95.7001 31.7L95.3501 31.3L94.8001 30.75L94.4001 30.4L93.7501 29.8L93.0501 29.2L92.4001 28.7L91.7501 28.2L90.7501 27.5L89.8001 26.9L88.8501 26.35L87.5501 25.65L86.2501 25.05L85.0501 24.55L83.2501 23.9L81.9501 23.5L80.5001 23.15L79.1501 22.9L76.9501 22.55L75.8501 22.25L75.0501 21.85L74.6001 21.55L74.3001 21.3L73.8501 20.75L73.4001 19.95L73.0001 19L72.7001 18.05L72.1001 15.95L71.6001 14.35L71.1001 13.15L70.5001 11.9L69.8501 10.75L69.3501 10L68.6501 9.05005L68.0501 8.40005L67.7001 8.00005L67.3501 7.65005L67.2501 7.60005V7.50005L67.0501 7.40005L66.2501 6.75005L65.3501 6.20005L64.4001 5.80005L63.6501 5.65005H62.9001L62.3001 5.80005L62.0001 6.00005L61.7001 6.35005L61.6001 6.60005V7.35005L61.8001 7.85005L61.9001 8.00005V8.15005L61.7001 8.05005L61.2501 7.70005L60.9501 7.35005L60.8501 7.05005V6.55005L61.0001 6.05005L61.3001 5.55005L61.7001 5.20005L62.2001 4.95005L62.9501 4.80005Z" fill="#FEFEFE"/>
<path d="M68.2002 63.65L68.5002 63.7L68.6002 63.9L68.6502 64.25L68.7002 65.85L68.7502 69.75L68.8502 74.45L68.9502 80.4L69.0002 89.75L68.9502 100.4L68.8502 106.4L68.7502 110.65L68.6502 113.3L68.5502 114.9L68.4502 115.1L68.2002 115.05L68.1502 114.75L68.1002 113.5L68.0002 108.5L67.9502 102.9V78.25L68.0002 73.05L68.1002 66.2L68.1502 63.7L68.2002 63.65Z" fill="#FEFEFE"/>
<path d="M69.7502 64.7L70.0002 64.75L70.1002 65.35L70.1502 66.5L70.2002 68.6L70.3002 74.2L70.3502 76.3L70.4002 80.9V95.7L70.3002 101.2L70.1002 108.1L70.0502 109.45L69.9502 110.45L69.8502 110.25L69.8002 109.7L69.6502 104.05L69.5502 99.15L69.5002 95.55L69.4502 89V78.4L69.5002 74.65L69.5502 67.2L69.6002 65.1L69.7002 64.75L69.7502 64.7Z" fill="#FEFEFE"/>
<path d="M63.5001 6.15002L64.1001 6.20002L64.8001 6.40002L65.6001 6.85002L66.1501 7.25002L66.6501 7.65002V7.75002L66.8501 7.85002L67.4001 8.45002L67.8501 9.00002L68.2501 9.50002L68.7001 10.15L69.2001 10.9L69.9501 12.35L70.4501 13.45L70.8501 14.5L71.3001 15.9L71.6501 17.3L72.3001 20.6L72.6501 21.65L73.1001 22.35L73.3501 22.65L73.9001 23L74.4501 23.2L75.5001 23.3L78.6001 23.55L80.4001 23.85L81.6501 24.15L83.4501 24.75L84.9001 25.3L85.9001 25.75L87.0501 26.35L88.0501 26.95L88.9001 27.5L89.4001 27.85L90.3501 28.5L91.1501 29.1L91.8501 29.65L92.3501 30.1L92.9001 30.55L93.5501 31.15L94.0501 31.6L94.5001 32.05L94.8501 32.45L95.1001 32.7V32.8H95.2001L95.6501 33.35L96.0501 33.9V34.2L95.8501 34.4L95.5501 34.3L95.3001 34.05L94.9501 33.7L94.5001 33.15L93.8501 32.5V32.4L93.7001 32.35L93.4501 32.1V32L93.2501 31.9L92.7001 31.4L92.1501 30.95L91.4501 30.35L90.7501 29.8L89.8001 29.1L88.9501 28.45L88.2501 28L87.5001 27.55L86.5501 27L85.7001 26.55L84.0001 25.85L83.0501 25.5L81.6501 25.05L80.4501 24.75L78.7501 24.45L77.4501 24.3L74.6001 24.05L73.9001 23.9L73.3501 23.65L72.8001 23.25L72.3501 22.75L71.9501 22.1L71.6501 21.35L71.3501 20.1L70.9001 17.4L70.5501 15.9L70.1501 14.6L69.5501 13.05L68.9501 11.8L68.4001 10.8L67.8501 10L67.3501 9.35002L66.8001 8.70002L66.3501 8.20002L66.0001 7.85002L65.3501 7.35002L64.6001 6.90002L63.8001 6.60002L63.4001 6.50002L63.3501 6.30002L63.5001 6.15002Z" fill="#FEFEFE"/>
<path d="M64.3499 66.3H64.5499L64.5999 66.5V71.65L64.4999 75.6L64.3499 80L63.9999 86.6L63.7999 90L63.4499 95.3L63.1499 98.85L62.6999 102.9L62.2499 106.1L61.8499 108.3L61.3999 110.3L60.8999 112.05L60.5499 113.05L60.1999 113.85L59.5999 114.9L59.1999 115.45L58.6999 116.2L58.4999 116.65L58.4499 116.85V117.25L58.7499 117.85L58.9999 118.15L59.4499 118.45L59.5999 118.65H59.0999L58.5499 118.5L57.9999 118.1L57.6999 117.65L57.6499 117.5V116.95L57.8999 116.45L58.4999 115.6L58.9999 114.9L59.5999 113.85L60.0999 112.7L60.4999 111.5L60.9499 109.75L61.2999 108L61.7499 105.2L62.0499 102.9L62.3999 99.45L62.6499 96.3L62.9499 91.8L63.1999 88L63.6499 79.5L63.9499 72.4L64.0999 68.4L64.1999 66.75L64.2999 66.35L64.3499 66.3Z" fill="#FEFEFE"/>
<path d="M69.4002 17.3H69.9502L70.0002 17.5L70.1002 19.9L70.2502 21.5L70.5002 22.75L70.7502 23.45L71.0502 24L71.5002 24.5L72.0502 24.85L72.8002 25.15L73.7002 25.45L74.1502 25.7L74.6502 26.1V26.2L74.8502 26.3L75.4002 27.1L75.8502 28.05L76.2002 29.1L76.4002 29.95L76.6002 31.45L76.6502 32.1V33.35L76.5502 34.65L76.3502 35.9L76.1002 36.65L75.8502 37.15L76.8502 36.6L77.2502 36.15L77.5002 35.6L77.7002 34.9L77.8502 33.9L77.9002 33.2V31.35L77.8002 30L77.6002 28.7L77.3002 27.5L76.7002 25.7V25.45L76.7502 25.4H77.1502L77.4502 25.6L77.7502 26.1L78.0502 26.85L78.3502 27.85L78.6002 29.15L78.7502 30.5L78.8002 32.4L78.7502 33.8L78.6002 35L78.4002 35.85L78.0502 36.8L77.6502 37.45L77.3002 37.75L76.9502 37.85H76.2002L75.7502 37.7L75.4002 37.4L75.3502 36.95L75.6502 35L75.7502 33.75V32.2L75.6002 30.75L75.3002 29.35L74.9502 28.3L74.5502 27.5L74.2002 27.05L74.0002 26.8L73.3002 26.35L71.9002 25.75L71.2002 25.4L70.5502 24.8L70.1002 24.1L69.7502 23.35L69.4502 22.2L69.3002 21.25L69.2002 19.95V18.5L69.3002 17.45L69.4002 17.3Z" fill="#FEFEFE"/>
<path d="M60.2999 68.5H60.4999L60.5499 68.7V70.35L60.4499 73.6L60.2999 76.95L59.8499 83.95L59.4499 88.7L58.9999 93.05L58.6499 96.15L58.1999 99.7L57.6499 103.6L57.1999 106.3L56.6999 108.7L56.3499 110.15L55.8999 111.75L55.3499 113.4L54.9999 114.2L54.3999 115.45L53.7999 116.45L53.6499 116.55L53.6999 116.3L54.2499 115.05L54.7499 113.7L55.1999 112.25L55.7999 110L56.1999 108.2L56.5999 106.2L57.1999 102.55L57.6999 98.9L58.1499 95.25L58.4499 92.55L58.7999 88.9L59.0999 85.35L59.2999 82.65L59.5999 78.4L59.9499 72.1L60.0999 69.25L60.1999 68.65L60.2999 68.5Z" fill="#FEFEFE"/>
<path d="M77.8999 38.2H78.2999L78.3499 38.25V42.8L78.2999 57.6L78.2499 59.8H78.0499L77.7999 59.5L77.6499 59.25L77.5999 59.05V51.8L77.6499 51.65V47.15L77.5499 47.3H77.2999L76.6499 46.65L75.9499 46.1L75.4499 45.7L75.0999 45.4L75.0499 45.25V44.55L75.0999 44.45L75.3499 44.5L76.0499 44.95L76.8499 45.5L77.2999 45.85L77.5999 46.35L77.6499 46.5V43.95L76.9999 43.9L75.5999 43.55L75.2499 43.4L75.0999 43.15L74.8999 42.55L74.9499 42.35H75.4499L76.9499 42.5L77.5499 42.65L77.6999 42.7V38.7L77.7499 38.35L77.8999 38.2Z" fill="#FEFEFE"/>
<path d="M73.85 65.2L74 65.25L74.15 66L74.3 68.75L74.5 73.95L74.7 77.55L75 82.7L75.05 83.8L75.15 88.4L75.2 91.8L75.3 95.6L75.4 97.9L75.5 99.5V101.6L75.35 103.05L75.15 104.1L74.75 105.35L74.65 105.5V104.95L74.85 103.25L74.95 101.6V99.8L74.8 95.4L74.65 90.95L74.45 83.7L74.15 76.4L74 71.55L73.95 69.35L73.85 67.45L73.75 66.1V65.6L73.8 65.25L73.85 65.2Z" fill="#FEFEFE"/>
<path d="M74.8998 65.15H75.1998L75.2498 65.2L75.4498 67.2L75.6998 69.9L75.9998 73.35L76.2498 76.15L76.3498 77.65L76.4498 80L76.4998 82L76.6498 92.2V93.75L76.5498 96.5L76.3998 98.2L76.2498 99.2L76.0998 99.7H76.0498V98.35L76.1498 96.05V90.6L76.0498 86.7L75.8998 82.35L75.5998 76.75L75.2498 71.25L75.0498 68.6L74.8498 66.4L74.7998 65.35L74.8998 65.15Z" fill="#FEFEFE"/>
<path d="M66.2001 15.05L66.4501 15.15L66.5501 15.25V15.7L66.2001 16.55L65.8501 17.3L65.4501 18.05L65.0501 18.85L64.4501 19.95L63.6501 21.6L62.8501 23L62.3001 24.15L61.7001 25.4L61.1001 26.5L60.5501 27.5L60.1501 28.3L59.7001 29.1L59.2001 29.85L58.9001 30.35L58.4501 31L58.0001 31.5L57.0001 32.25L55.8001 33.45L55.4501 33.85L55.0001 34.35L54.6001 34.6L54.1501 34.85H54.0501V34.95L53.8501 35.15L53.8001 35.3L53.7501 36L53.6501 36.2L52.1001 36.6L51.6001 36.75L51.8001 36.5L52.3001 36.1L53.0001 35.5L53.5001 35L54.0501 34.3L54.5501 33.6L55.0001 33L55.4501 32.6L56.1501 32.1L56.8501 31.65L57.4001 31.35L57.8001 31.05L58.1501 30.65L58.6001 29.95L58.6501 29.7L59.3001 28.5L59.6501 28.1L60.0501 27.45L60.1001 27.35L59.9501 27.3L60.5001 26.3L60.6501 26.15L61.7501 23.95L62.2501 23L62.6001 22.3L63.0501 21.5L63.9501 19.7L64.0001 19.45L64.2501 18.95L64.4001 18.9L64.8001 18.1L65.2001 17.3L65.6001 16.55L65.9001 16.05L65.9501 15.75L66.2001 15.05Z" fill="#FEFEFE"/>
<path d="M62.85 59.35L62.9 59.5L62.6 60.3L61.9 62.2L61.35 63.5L60.75 64.75L60.1 65.85L59.6 66.6L59 67.45L58.3 68.3L57.95 68.7L57.2 69.5H57.1V69.6L56.55 70.05L55.95 70.5L55.1 71.05L53.95 71.6L53.05 71.9L52.05 72.1L51.2 72.15L50.25 72.1L49.5 71.95L48.85 71.7L48.25 71.35L47.65 70.8L47.5 70.6L47.75 70.7L48.55 71.1L49.2 71.3L49.75 71.4L50.3 71.45H51.15L52.15 71.35L53 71.15L53.75 70.9L54.5 70.55L55.2 70.15L56.05 69.55L56.6 69.1L57.35 68.4L57.7 68L58.2 67.45L58.85 66.55L59.35 65.8L59.9 64.9L60.45 63.95L61 62.8L61.85 61.05L62.25 60.25L62.6 59.6L62.85 59.35Z" fill="#FEFEFE"/>
<path d="M64.5501 58H65.2001L66.5501 58.2L67.0501 58.35L67.1001 58.5L65.8001 58.7L65.4001 58.85L65.1501 59.05L64.7501 59.7L64.4501 60.55L63.6501 63.75L63.3501 65.1L63.1001 66.25L62.9001 66.55H62.4001L62.0001 66.3L61.8501 66.1V65.55L62.2001 64.1L62.7001 62.6L63.3001 60.1L63.6001 58.85L63.9001 58.4L64.4001 58.05L64.5501 58Z" fill="#FEFEFE"/>
<path d="M62.5 57.35H63.15L63.95 57.5L64.15 57.65L63.85 57.75L63.35 57.9L62.85 58.2L62.35 58.6L61.8 59.15L61.05 60.15L60.5 61L60.05 61.75L59.6 62.55L59 63.5L58.5 64.2L58.1 64.7L57.5 65.35L56.95 65.85H56.85V65.95L55.95 66.6L55.15 67.05L54.35 67.4L53.5 67.65L52.65 67.8H51.35L50.45 67.65L49.7 67.4L49.1 67.05L49 66.85L49.9 67.05L50.6 67.15H52.3L53.45 66.95L54.5 66.6L55.3 66.2L56 65.75L56.7 65.2L57.35 64.6L57.85 64.05L58.55 63.1L59.2 62.05L59.75 61.15L60.35 60.05L60.95 59L61.55 58.2L62 57.75L62.5 57.35Z" fill="#FEFEFE"/>
<path d="M69.5001 29.15H70.4501L71.1501 29.3L71.6501 29.55L71.9501 29.9L72.0001 30.2L71.9501 30.3L71.5501 30.25L71.1501 30.05L70.4501 29.95H69.5001L68.4001 30.1L67.3001 30.4L66.4001 30.8L65.6001 31.2L64.8501 31.65L64.0501 32.15L63.1001 32.8L62.3001 33.25L61.4001 33.6L59.2501 34.2L57.7001 34.5L56.3501 34.75L56.0001 34.9L55.6001 35.35L55.3001 35.9L55.1001 35.95V35.25L55.2001 34.95L55.3001 34.5L55.8001 34.25L57.6001 33.95L59.4001 33.55L60.8501 33.15L61.7001 32.8L62.6501 32.3L63.6001 31.75L64.8001 31L65.8501 30.35L66.8001 29.85L68.3001 29.35L69.0001 29.2L69.5001 29.15Z" fill="#FEFEFE"/>
<path d="M56.5499 55.1H57.2499L58.0499 55.45L58.5999 55.75L58.8499 55.9V56.05L58.0999 56.25L57.7999 56.45L57.1499 57.05L56.4499 57.75L55.9999 58.3L55.5999 58.85L55.3499 59.45L55.0499 59.95L54.4999 60.6L54.2999 60.85H54.1499V60.4L54.3499 58.6L54.5999 57.55L54.8499 56.9L55.3499 55.95L55.7499 55.5L56.1999 55.2L56.5499 55.1Z" fill="#FEFEFE"/>
<path d="M59.0001 56H59.4001L60.0501 56.2L60.4501 56.4V56.55L59.7001 56.8L59.0001 57.3L58.4501 57.85L58.0001 58.6L57.4501 59.75L57.0001 60.75L56.5001 61.7L56.0501 62.5L55.5501 63.2L55.0501 63.75L54.4001 64.2L53.7501 64.5L52.9501 64.7L52.4501 64.75H52.0001L51.3001 64.65L50.7501 64.45L50.3501 64.25L49.8501 63.8L49.9001 63.7L50.6001 64L51.4501 64.15H52.2001L53.0501 64L53.6501 63.8L54.4001 63.4L54.8001 63.05H54.9001L55.0001 62.85L55.4501 62.3L55.8501 61.65L56.4001 60.5L57.2001 58.65L57.7001 57.65L58.2001 56.9L58.7501 56.25L59.0001 56Z" fill="#FEFEFE"/>
<path d="M93.2001 76.7H93.2501L93.3001 87.65V110.35H93.2501L93.2001 89.6L93.1501 87.4L93.1001 104.4V109.6L93.0501 111.1L93.0001 111.45H92.9501L92.9001 85.05L92.8501 80.1V77.9L92.9501 77.45H93.0501L93.1501 76.8L93.2001 76.7Z" fill="#242425"/>
<path d="M68.7499 26.8H70.1999L70.7499 26.95L71.0499 27.15L71.2999 27.55L71.5499 28.45L71.4999 28.7L71.1999 28.6L70.5999 28.35L70.0499 28.25L68.8499 28.2H67.3999L67.5499 28.1L68.2999 27.95L68.9499 27.9H70.0999L70.7499 28L71.0999 28.1L70.9999 27.85L70.6999 27.7L70.1499 27.6H68.8999L67.5999 27.75L66.2999 28.05L64.9499 28.5L63.8999 28.95L63.0999 29.35L61.6499 30.1L61.0999 30.4H60.8999L60.9999 30.2L61.2499 29.95L61.8999 29.45L62.8499 28.85L63.6499 28.45L64.2499 28.15L65.5499 27.65L66.7499 27.25L68.0999 26.9L68.7499 26.8Z" fill="#FEFEFE"/>
<path d="M88.6 89.45H88.65L88.6 104V113.2L88.5 113L88.35 113.15L88.25 112.4V91.8L88.3 91.3L88.4 91.1L88.55 89.7L88.6 89.45Z" fill="#25292C"/>
<path d="M54.5502 53.3H55.9502L56.5002 53.45L57.0002 53.75L57.3002 54L57.6002 54.35V54.55L57.3002 54.5L56.4502 54.1L55.9002 53.95L55.5502 53.9H54.3002L53.4502 54.1L52.8502 54.3L52.0502 54.7L50.9502 55.35L50.0502 56L49.5002 56.45L48.8502 57.05L48.4502 57.45L48.0002 58L47.5502 58.55L47.3502 58.85H47.2502L47.2002 58.95L47.2502 58.7L47.5502 58.05L47.9502 57.35L48.5002 56.65L49.0502 56.05L49.5502 55.65L50.4002 55L51.2502 54.45L52.2502 53.9L53.0502 53.6L53.8502 53.4L54.5502 53.3Z" fill="#FEFEFE"/>
<path d="M30.1999 108.05H31.0499L31.1499 108.1L31.0999 108.2L30.9499 108.25L30.8999 108.35L30.6499 108.55L30.0499 108.8L29.2499 108.85L25.3499 108.9L23.8999 109L21.8499 109.25L20.6999 109.45L20.3999 109.4L20.4999 109.3L22.0499 108.85L23.1999 108.6L25.0999 108.3L27.3999 108.1L30.1999 108.05Z" fill="#020203"/>
<path d="M50.25 45.85L50.9 45.95L51.7 46.2L53.15 46.9L54.25 47.55L54.95 48.05L55.5 48.5L55.75 48.75L56.2 49.2L56.4 49.5L56.9 50.3L57.25 51.15L57.5 51.85L57.55 52.25L57.45 52.15L57.25 51.7L56.75 50.9L56.3 50.3L55.75 49.7V49.6H55.65V49.5L55.45 49.4L55.1 49.05L54.45 48.55L53.1 47.65L52.15 47.1L51.05 46.5L50.25 46V45.85Z" fill="#FEFEFE"/>
<path d="M55.6499 54.45H56.5999L56.8499 54.55L56.6499 54.65L55.8499 54.85L55.0999 55.3L54.2999 55.9L53.7999 56.3L53.2499 56.85L52.7999 57.4L52.1499 58.2L51.3499 59.4L50.8999 60.1L50.4999 60.7L50.0999 61.25L49.8999 61.45L49.9499 61.2L50.3499 60.2L50.8499 59.25L51.1499 58.7L51.5999 57.95L52.0999 57.25L52.6499 56.6L52.9999 56.2L53.2499 55.9L53.6499 55.55L54.3999 55L54.8999 54.7L55.6499 54.45Z" fill="#FEFEFE"/>
<path d="M68.8501 74.8H68.9001L69.0501 82.2L69.1001 84L69.2001 82.9L69.2501 82.8V82L69.4001 76.95L69.4501 74.85H69.5001V93.95H69.4501L69.4001 92.05L69.3001 90.4V90L69.2001 89.75L69.1501 89.65H69.2501L69.2001 89.35L69.2501 88.75H69.1501V85.2L69.2001 84.95H69.1001V88.85L69.0501 90.7L68.9501 90.65V89.15L68.9001 80.4L68.8501 77.2V74.8Z" fill="#1B1917"/>
<path d="M71.6002 36.95L71.8002 37L72.1002 37.6L72.6502 39L73.1002 39.85L73.4502 40.2L74.1502 40.6L74.2002 40.9L74.0502 40.95H73.0502L72.5502 40.85L72.3502 40.6L72.0502 39.6L71.6002 38.6L71.2502 38.15L71.1002 38.05L70.5002 37.95L70.4502 37.9V37.55L70.6502 37.3L71.6002 36.95Z" fill="#FEFEFE"/>
<path d="M60.8002 56.65L61.5502 56.8L62.2502 57.15L62.3502 57.3L62.0502 57.4L61.4502 57.55L61.1002 57.75L60.6002 58.2L60.3502 58.5L60.0502 58.95L59.4502 59.95L58.9502 60.6L58.6002 60.9H58.4502L58.5002 60.55L58.9002 59.55L59.2002 58.55L59.4002 57.95L59.7002 57.5L60.2002 57L60.8002 56.65Z" fill="#FEFEFE"/>
<path d="M63.4002 33.2H63.8502L64.0002 33.4L64.0502 34.35H63.8502L63.7002 35.25L63.3502 36.55L63.1502 36.85L63.0002 36.95H62.6502L62.1502 36.6L61.7502 35.95L61.3502 35.15L61.2002 34.8V34.55H61.4502L61.7002 34.85L62.1002 35.35L62.6002 35.75L62.7502 35.7L63.0502 35.1L63.1502 34.8V34.2L63.0002 33.85L62.7502 33.65V33.45L63.4002 33.2Z" fill="#FEFEFE"/>
<path d="M90.4502 84.4L90.6002 84.45L90.6502 85.35V87.2L90.7002 92.05V109.75L90.6502 112.65L90.5502 112.7L90.5002 87.6L90.4502 85.6V84.4Z" fill="#232527"/>
<path d="M96.7502 34.05H98.9502L100.4 34.15L101.3 34.3L101.6 34.45L101.7 34.65V35L101.65 35.05H101.15L99.6002 34.9L98.6502 34.85L96.8002 34.8L96.7502 34.75L96.7002 34.15L96.7502 34.05Z" fill="#FEFEFE"/>
<path d="M37.0998 111.95L37.1998 112L36.8498 112.3L36.1498 112.75L34.8998 113.35L33.3998 113.9L32.0498 114.25L30.8498 114.45L30.2998 114.5H28.6498L27.7498 114.4L27.2998 114.25V114.2L28.1498 114.15L29.6998 114.1L31.0998 113.95L32.2998 113.7L33.5998 113.35L35.1998 112.8L36.5498 112.2L37.0998 111.95Z" fill="#FEFEFE"/>
<path d="M86.0002 96.35H86.0502V101.65L86.2002 101.7L86.1002 101.75V101.9L86.2002 101.95V102.1L86.1002 102.25L86.2002 102.45L86.1502 102.6L86.1002 102.8L86.2002 102.95V108.25L86.2502 105.2H86.3002V114.1H86.2502L86.2002 113.2H86.1502L86.0502 114.1L85.9502 114.3L86.0002 96.35Z" fill="#232425"/>
<path d="M92.8999 81.45H92.9499L92.9999 84.25L93.0499 86.1L93.0999 109.6L93.0499 111.1L92.9999 111.45H92.9499L92.8999 85.05V81.45Z" fill="#2E3032"/>
<path d="M70.3501 30.55H70.7501L71.2501 30.65L71.5001 30.95L71.5501 31.35L71.7001 31.5L71.8501 32.4L71.9501 32.65V32.9L71.9001 32.95L71.5001 32.9L70.8501 32.7L70.5001 32.6L70.4001 32.3L70.3501 31.15V30.55Z" fill="#FEFEFE"/>
<path d="M75.3498 47.05L75.7498 47.1L76.2498 47.55L76.7498 47.95L77.0998 48.3L77.4498 48.85L77.5998 49.35L77.5498 49.7L77.3498 49.75L76.6998 49.15L76.4498 48.9L76.0998 48.55L75.7498 48.15L75.3998 47.75L75.2998 47.2L75.3498 47.05Z" fill="#FEFEFE"/>
<path d="M70.6498 33.7H70.9998L71.0998 33.9L71.4498 36.25L71.4998 36.75L71.4498 36.8H71.0998L70.8498 36.55L70.5998 35.8L70.3498 34.7L70.2998 34.35V33.85L70.3998 33.75L70.6498 33.7Z" fill="#FEFEFE"/>
<path d="M53.7002 52H54.1502L54.9502 52.1L55.7502 52.35L55.7002 52.55H53.5002L52.0502 52.7L51.0502 52.9L50.3502 53.05L50.2002 53L50.9002 52.6L51.5502 52.35L52.3502 52.15L53.0502 52.05L53.7002 52Z" fill="#FEFEFE"/>
<path d="M67.9501 25.3H68.7501L69.5501 25.45L69.7001 25.55V25.65L67.9001 25.8L66.7001 26.05L65.4501 26.4L64.3501 26.8H64.1001L64.3501 26.6L64.8001 26.3L65.7501 25.85L66.8501 25.5L67.5501 25.35L67.9501 25.3Z" fill="#FEFEFE"/>
<path d="M69.4501 74.85H69.5001V93.95H69.4501L69.4001 92.05L69.3501 91.5V78.95L69.4501 74.85Z" fill="#262827"/>
<path d="M76.7998 50.55L76.9998 50.6L77.2498 50.85L77.4498 51.4L77.5498 51.75L77.4998 52.2L77.2498 52.35L76.7498 52.4L76.5498 52.25V51.5L76.6498 50.8L76.7998 50.55Z" fill="#FEFEFE"/>
<path d="M90.4502 84.4L90.6002 84.45L90.6502 85.35V96.4L90.5502 96.45L90.5002 87.6L90.4502 85.6V84.4Z" fill="#323336"/>
<path d="M68.8501 74.8H68.9001L69.0501 82.2L69.1001 88.35L69.0501 90.7L68.9501 90.65V89.15L68.9001 80.4L68.8501 77.2V74.8Z" fill="#27292C"/>
<path d="M56.4499 56.35H56.5499L56.4499 56.6L55.9499 57.35L55.6499 57.95L55.2499 59L54.9999 59.4H54.8999L54.9999 58.7L55.2999 57.8L55.6499 57.15L56.0999 56.6L56.4499 56.35Z" fill="#0A0B0C"/>
<path d="M83.5998 102.8H83.6498L83.6998 108V111.6L83.6498 113.3L83.5998 113.55H83.5498V107.75L83.5998 102.8Z" fill="#202427"/>
<path d="M81.1999 103.7H81.2499L81.2999 108.4L81.3499 110.4V111.3L81.2499 113.45L81.1999 113.9H81.1499V112.2L81.1999 103.7Z" fill="#222326"/>
<path d="M76.3002 107.1H76.3502V109.3L76.3002 110.6H76.2502L76.2002 109.5L76.0502 110.95L75.9502 111.15L76.0002 109.95L76.1002 107.85L76.2002 107.45L76.1502 107.3L76.3002 107.25V107.1Z" fill="#2C2F32"/>
<path d="M50.0499 38.55H50.1499L50.2499 38.7L50.4999 39.6L50.6499 39.95V40.1H50.2499L49.9499 39.95L49.8999 39.45L49.9499 38.85L50.0499 38.55Z" fill="#FEFEFE"/>
<path d="M90.4502 84.4L90.6002 84.45L90.6502 85.35V89.95H90.6002L90.5502 89.6L90.4502 85.6V84.4Z" fill="#1F1F21"/>
<path d="M90.5998 107.6H90.6498L90.6998 109.5L90.6498 112.65L90.5498 112.7V107.95L90.5998 107.6Z" fill="#252528"/>
<path d="M86.1501 109.55H86.2501V113.2H86.1001V110.3L86.1501 110V109.55Z" fill="#181A17"/>
<path d="M76.2502 108.25H76.3002V110.6H76.2502L76.2002 109.5L76.0502 110.95L75.9502 111.15L76.0002 109.95L76.1002 109.2V108.85L76.1502 108.8L76.2502 108.25Z" fill="#1B1E21"/>
<path d="M90.5 86.9H90.55V87.2H90.65V89.95H90.6L90.55 89.6L90.5 86.9Z" fill="#252628"/>
<path d="M98.3 75H98.35L98.4 76.5V77.6L98.3 78.15H98.25V76.4L98.3 75Z" fill="#26282C"/>
<path d="M63.2502 38.35L63.3502 38.4L63.2002 39.05H63.1002V39.15L62.6502 39.4H62.4502L62.5002 39.2L62.6502 39.1H62.8502L62.9502 38.85L63.1002 38.6L63.2502 38.35Z" fill="#FDFDFD"/>
<path d="M51.8498 38.1L51.9498 38.3L52.1998 38.7L51.7998 38.75L51.5498 38.55V38.25L51.8498 38.2V38.1Z" fill="#07070A"/>
<path d="M93.1501 77.6L93.2501 77.65V79.55L93.1501 79.65L93.1001 79.6L93.1501 77.6Z" fill="#333436"/>
<path d="M98.4499 71H98.4999L98.5499 73.75L98.4499 74.25H98.3999L98.4499 71Z" fill="#252628"/>
<path d="M69.0498 84.4L69.1498 84.45V84.75L69.1998 84.95H69.0998V87.65H69.0498V84.4Z" fill="#111112"/>
<path d="M76.3001 107.1H76.3501V107.7L76.2501 108.2L76.1001 108.4V107.85L76.2001 107.45L76.1501 107.3L76.3001 107.25V107.1Z" fill="#2F3234"/>
<path d="M88.6001 89.45H88.6501L88.6001 90.15L88.5501 91.4L88.4001 91.55L88.3501 91.1H88.4001L88.5501 89.7L88.6001 89.45Z" fill="#1A1C1E"/>
<path d="M69.9998 109.45H70.0498V110.2L69.9498 110.85H69.8498L69.7998 110.45V109.7H69.8498L69.8998 110.25L69.9998 109.45Z" fill="#2C2D2F"/>
<path d="M76.1002 109.2H76.1502V110.1L76.0002 111.15H75.9502L76.0002 109.95L76.1002 109.2Z" fill="#222426"/>
<path d="M86 102.15L86.1 102.25L86.2 102.45L86.15 102.6L86.1 102.8L86.05 104.4H86V102.15Z" fill="#242426"/>
<path d="M86.1501 109.55H86.2501V110.8L86.1501 110.85L86.1001 110.75V110.3L86.1501 110V109.55Z" fill="#0D0E0C"/>
<path d="M27.1001 114.15H28.1501V114.2L27.4501 114.25L27.7501 114.35V114.4L27.4001 114.35L27.1001 114.25V114.15Z" fill="#313236"/>
<path d="M93.1498 86.4H93.1998V87.35L93.0998 87.4L93.0498 86.65L93.1498 86.4Z" fill="#171714"/>
<path d="M76.3001 107.1H76.3501L76.3001 107.55L76.2001 108H76.1001L76.2001 107.45L76.1501 107.3L76.3001 107.25V107.1Z" fill="#404143"/>
<path d="M86.2499 104H86.2999V104.95H86.1999L86.1499 104.6L86.1999 104.35L86.2499 104Z" fill="#050606"/>
<path d="M61.5001 48.2H61.8501L61.7501 48.25L61.8001 48.5H61.4501V48.4L61.5001 48.35L61.3501 48.25L61.5001 48.2Z" fill="#060807"/>
<path d="M81.6001 115.55H82.2001L82.2501 115.65L82.0501 115.7H81.7001L81.6501 115.8L81.6001 115.55Z" fill="#323030"/>
<path d="M67.1999 28.1H67.5499V28.15L67.8499 28.2V28.25H66.8999V28.2L67.1999 28.1Z" fill="#323232"/>
<path d="M56.4498 56.35H56.5498L56.4498 56.6L56.2998 56.75L56.1998 56.65H56.0498L56.4498 56.35Z" fill="#121216"/>
<path d="M37.4498 111.7H37.5498V111.8L37.1498 112.15L37.0498 112.1L37.1498 112L37.0998 111.9L37.4498 111.7Z" fill="#2D2D2F"/>
<path d="M77.5499 49.45L77.6499 49.55V50L77.4999 49.9V49.8L77.3999 49.75L77.4999 49.7L77.5499 49.45Z" fill="#29292F"/>
<path d="M96.4999 31.8H96.9999L96.8999 31.95H96.4499L96.3999 31.85L96.4999 31.8Z" fill="#212429"/>
<path d="M53.5999 116.45L53.7499 116.5L53.6499 116.75L53.4999 116.95L53.3999 116.9L53.5999 116.45Z" fill="#29292B"/>
<path d="M94.8001 110.65L94.8501 110.85L94.9501 111.05L94.6001 111L94.8001 110.65Z" fill="#232629"/>
<path d="M20.6499 109.25L20.8499 109.3V109.4L20.4999 109.45L20.3999 109.35L20.6499 109.25Z" fill="#1D1E1F"/>
<path d="M76.25 62.2H76.35L76.4 62.35L76.45 62.4V62.65H76.3L76.25 62.2Z" fill="#07070B"/>
<path d="M65.6998 36.15H65.7498L65.7998 36.45L65.7498 36.55H65.6498L65.5498 36.2L65.6998 36.15Z" fill="#0B0F10"/>
<path d="M64.0498 26.75L64.3498 26.8L64.1998 26.9L63.9498 27L63.7998 26.95L64.0498 26.75Z" fill="#2B2B2B"/>
<path d="M61.6498 41.55L61.7998 41.6L61.7498 41.8L61.8498 41.85L61.6998 41.9L61.5498 41.8L61.6498 41.55Z" fill="#050607"/>
</g>
<defs>
<clipPath id="clip0_703_97">
<rect width="128" height="128" fill="white"/>
</clipPath>
</defs>
</svg>
